<svg xmlns="http://www.w3.org/2000/svg" width="645.333" height="552" version="1.0" viewBox="0 0 484 414"><path d="M0 207v207h484V0H0v207zM260 34.4c37 5 70.9 21.3 98 47.3 15.4 14.8 32.3 37.8 38.4 52.7 2 4.9 2.1 4.8-1.1 4.4-2.4-.3-3.5-1.6-7.4-8.9-25.2-47.7-70.4-80.4-123.4-89.3-47.7-8.1-98 5.4-136.1 36.5-16.9 13.8-35.7 37-44.5 55.1-2.9 6-3.7 6.8-6.1 6.8-1.5 0-2.8-.3-2.8-.6 0-2 12.1-23.3 17.8-31.4 8.6-12.2 29-32.6 41.2-41.2 17.3-12.3 39.7-22.6 60.3-27.9 18.6-4.7 45.4-6.2 65.7-3.5zm7 17.6c48.6 9.9 87.1 39 111.3 84.2l4.7 8.8h-2.7c-2.5 0-3.3-1-7.2-8.3-19.9-37.3-52.4-64.1-92.2-76-16.5-5-25.8-6.2-45.9-6.1-18.8.1-29.3 1.7-46.3 7-37.2 11.8-71.3 40.9-89.2 76.1-3 6.1-4.1 7.3-6.1 7.3-1.3 0-2.4-.2-2.4-.5 0-1.4 7.8-15.9 12.4-23 25.4-38.9 68.4-65.9 114.1-71.4 12.7-1.6 37.3-.6 49.5 1.9zm-33.7 26.2c.3 3.9.4 7.5.1 8-1 1.6-3.4.8-3.4-1.1 0-3-1.7-3.4-2.4-.6-.9 3.5-3.9 3.2-5.9-.8l-1.8-3.2.5 3.2c.4 2.3.1 3.3-1.1 3.7-2.5 1-3.3-1.2-3.3-8.7 0-6 .2-6.7 2-6.7 1.3 0 2.7 1.5 4.4 4.7 2.1 4.1 2.5 4.5 3.2 2.8 2.6-7.1 3.4-8.5 5.2-8.5 1.6 0 2 1 2.5 7.2zm10.9-3.1 1 3 1.9-3c1.3-2.1 2.3-2.8 3.8-2.4 1.9.5 1.8.7-1 5.3-1.6 2.6-2.9 5.7-2.9 6.9 0 1.5-.6 2.1-2.4 2.1-1.9 0-2.2-.4-1.9-2.3.2-1.2-.5-4.4-1.6-7-2.6-5.9-2.6-5.7 0-5.7 1.3 0 2.3 1 3.1 3.1zM425 160.5c.6.8.9 1.9.5 2.5-1 1.7-2.5 1.1-2.5-1 0-2-.7-2-189-2s-189 0-189 2c0 2.1-1.5 2.7-2.5 1-.4-.6-.1-1.7.5-2.5 1.9-2.2 380.1-2.2 382 0zm-252 18.4c3.3 2.3 4.9 7.1 4.9 14.8l.1 6.3h-9.7l-.6-6.1c-.5-6.1-1.8-8.2-4.3-7.2-2 .7-2.4 4-2.4 20.4 0 17.3.5 21.8 2.8 22.6 2.6 1.1 4.2-2.7 4.2-9.9 0-6.1-.2-6.8-2-6.8-1.7 0-2-.7-2-4.5V204h14v35h-3c-2.1 0-3-.5-3-1.6 0-1.5-.3-1.5-2.7.1-3.5 2.3-9.3 2.4-12.6.2-5.5-3.6-6.2-6.4-6.5-28.1-.4-21.2.4-26.1 4.8-30.1 4.1-3.7 13.2-4 18-.6zm118.2-.8c2.9 1.6 5.1 7 5.6 14.2l.5 6.8-5.4-.3-5.4-.3-.3-5.5c-.4-6.2-1.4-7.9-3.7-6-3.5 2.9-1.7 7.7 6.1 16.1 7.7 8.4 10.3 16.2 8.4 25.3-.7 3.7-2 6.2-4.1 8.2-2.6 2.5-3.8 2.9-8.9 2.9-9.2 0-12.8-4.5-13.7-17.1l-.6-7.4H281v5.8c0 3.6.6 6.5 1.5 7.8 1.5 1.9 1.5 1.9 3 0 3.3-4.3.5-12.5-6.5-19.1-9.3-8.8-11.6-21.6-5.2-29.5 3-3.7 12.2-4.7 17.4-1.9zM236 208l4.6 30.5-4.9.3c-2.7.2-5.1.1-5.4-.1-.2-.3-.7-2.7-1.1-5.4-.7-4.7-.8-4.8-4.3-5.1-4-.3-4.9 1-4.9 7.5v3.3h-5.5c-4.6 0-5.5-.3-5.5-1.8 0-.9 1.9-14.9 4.2-31l4.2-29.3 7 .3 7 .3L236 208zm-36 26v5h-10v-10h10v5zm60 0v5h-10v-10h10v5zm57 0v5h-10v-10h10v5zm108.5 22c0 1.3-22 1.5-190.9 1.8-114.6.1-191.4-.2-191.9-.7-.5-.5-.6-1.4-.3-2 .5-.8 54.8-1 191.9-.9 169.2.3 191.2.5 191.2 1.8zm-325 23.7c15 28.4 39.2 51.9 68 66.2 13.2 6.5 23.2 9.9 38.7 13.2 13.7 3 42.6 3.2 56.3.6 45-8.8 82.1-34.3 105.1-72.2 2.7-4.4 5.8-9.9 6.8-12.3 1.6-3.6 2.4-4.2 4.8-4.2h3l-5.2 9.7C346.4 340 284.9 373 219.2 366c-53.1-5.7-100.4-38.8-125.1-87.8-1.7-3.4-3.1-6.4-3.1-6.7 0-.3 1.1-.5 2.4-.5 2.1 0 3.2 1.4 7.1 8.7zM84.7 288c14.7 28 37.4 52.2 64.2 68.4 40.9 24.7 92.3 30.8 138.6 16.5 43.1-13.3 80.8-45.2 101.6-85.8 3.5-6.9 4.5-8.1 6.6-8.1 2.2 0 2.4.3 1.8 2.7-.9 4-10.3 20.4-17.7 30.8-8.2 11.7-28.8 32.2-40.6 40.5-22.6 15.8-46.6 25.8-73.7 30.6-11 1.9-47.2 1.9-58.4-.1-55.2-9.7-102.3-44.4-127.7-94.2-2.4-4.8-4.4-9.1-4.4-9.6 0-.4 1.2-.7 2.6-.5 2.2.2 3.4 1.8 7.1 8.8zm203.4 38c2.7 6.3 2.7 6.5.9 7.4-1.5.7-3 .2-6-1.8-2.2-1.4-4-2.5-4-2.2 0 .2.7 1.9 1.5 3.9 1.3 3.2 1.3 3.6-.2 4.1-.9.4-2 .3-2.4-.1-1.3-1.4-5.7-12.8-5.2-13.5.8-1.5 3.9-.8 7.6 1.7 4.2 2.9 4.2 2.9 2.2-1.8-.8-1.9-1.1-3.7-.8-4.1 1.7-1.7 3.8.4 6.4 6.4zm-98.1-4c2.2 2.2 2.5 3.6 1.1 4.4-1.4.9-4.1-.4-4.1-2 0-.8-.4-1.4-1-1.4-1.7 0-1.1 2.2 1.1 4.6 4.2 4.5 0 9.8-5.7 7.2-2.2-1-4.3-5.2-3.2-6.4.9-.9 3.8.8 3.8 2.2 0 .8.7 1.4 1.5 1.4 1.9 0 1.9-1.4-.1-3-4.5-3.8-3.6-9 1.6-9 1.7 0 3.9.9 5 2zm12.6 3.6c3.5 1 5.4 2.1 5.4 3.1 0 1.1-.7 1.4-2.4 1.1-2.1-.4-2.5.1-4 5.4-1.6 5.8-2.1 6.4-4.3 5-.9-.6-.8-2 .4-6.1 1.4-4.9 1.4-5.5-.1-6.3-1.5-.8-2.3-3.8-1-3.8.3 0 3 .7 6 1.6zm65.5 3.3c1.7 1.8 2.9 4 2.9 5.6 0 3.6-4.1 7.5-8 7.5-3.9 0-8-3.9-8-7.5 0-3.2 5-8.5 8-8.5 1.2 0 3.5 1.3 5.1 2.9zm-46.4 6.6c1.7 8.4 1.6 9.5-.7 9.5-1.1 0-2-.7-2-1.5 0-1-1-1.5-3-1.5-1.6 0-3 .4-3 1 0 .5-.9 1-2 1-2.7 0-2.6-.8 1.2-8.5 2.8-5.7 3.6-6.5 5.8-6.3 2.1.3 2.6 1.1 3.7 6.3zm27.8-1.3c.3 2.9.9 6.6 1.2 8.1.4 2.6.2 2.8-1.9 2.5-2.1-.3-2.4-1-3.1-7.2-.5-5.2-.4-7.2.5-7.8 2.3-1.4 2.6-.9 3.3 4.4zm-8.5-2.7c0 .8-.9 1.5-2 1.5-1.8 0-2 .7-2 6s-.2 6-2 6-2-.7-2-5.9c0-5.4-.2-6-2.2-6.3-1.2-.2-2.3-.9-2.6-1.6-.3-.9 1.4-1.2 6.2-1.2 5.2 0 6.6.3 6.6 1.5z"/><path d="M223.6 205c-.4 3.6-1 8.2-1.3 10.2-.5 3.6-.4 3.8 2.2 3.8h2.7l-.7-6.3c-.4-3.4-1-8-1.4-10.2-.7-3.9-.7-3.9-1.5 2.5zM260.2 331.2c-2.7 2.7-.6 6.8 3.4 6.8 3.4 0 4.5-3.8 1.8-6.4-1.9-1.9-3.6-2-5.2-.4zM215.6 337.5c-.3.9 0 1.5.9 1.5.8 0 1.5-.7 1.5-1.5s-.4-1.5-.9-1.5-1.1.7-1.5 1.5z"/></svg>